<?xml version="1.0" encoding="UTF-8" standalone="no"?>
<svg
   xmlns:dc="http://purl.org/dc/elements/1.1/"
   xmlns:cc="http://creativecommons.org/ns#"
   xmlns:rdf="http://www.w3.org/1999/02/22-rdf-syntax-ns#"
   xmlns:svg="http://www.w3.org/2000/svg"
   xmlns="http://www.w3.org/2000/svg"
   xmlns:xlink="http://www.w3.org/1999/xlink"
   xmlns:sodipodi="http://sodipodi.sourceforge.net/DTD/sodipodi-0.dtd"
   xmlns:inkscape="http://www.inkscape.org/namespaces/inkscape"
   sodipodi:docname="null.svg"
   inkscape:version="1.0beta1 (fe3e306, 2019-09-17)"
   inkscape:export-ydpi="15.646278"
   inkscape:export-xdpi="15.646278"
   inkscape:export-filename="E:\UWAMP\www\PPE2\img\stars\0.png"
   id="svg8"
   version="1.1"
   viewBox="0 0 162.33893 155.15935"
   height="155.15935mm"
   width="162.33893mm">
  <defs
     id="defs2">
    <symbol
       id="Telephone">
      <title
         id="title3885">Telephone</title>
      <g
         id="g3892"
         style="stroke:none">
        <path
           id="path3887"
           d="m 6.0854167,9.525 c 0,6.35 2.9104166,7.9375 3.4395833,7.9375 v -4.497917 c -0.79375,0 -0.79375,-2.116666 -0.79375,-3.439583 0,-1.3229167 0,-3.4395833 0.79375,-3.4395833 V 1.5875 c -0.79375,0 -3.4395833,1.5875 -3.4395833,7.9375 z"
           inkscape:connector-curvature="0"
           style="stroke-width:0.26458332" />
        <path
           d="M 11.1125,6.0854167 A 0.52916667,0.52916667 0 0 0 11.641667,5.55625 V 2.1166667 A 0.52916667,0.52916667 0 0 0 11.1125,1.5875 h -1.058333 v 4.4979167 z"
           id="ear1"
           inkscape:connector-curvature="0"
           style="stroke-width:0.26458332" />
        <use
           id="use3890"
           xlink:href="#ear1"
           y="43"
           x="0"
           width="100%"
           height="100%" />
      </g>
    </symbol>
    <symbol
       id="Telephone_Inv">
      <title
         id="title3895">Telephone</title>
      <rect
         id="rect3897"
         style="stroke:#ffffff;stroke-width:0.26458332"
         ry="1.5875"
         height="18.785418"
         width="18.785418"
         y="0.13229166"
         x="0.13229166" />
      <g
         id="g3904"
         style="fill:#ffffff;stroke:none">
        <path
           id="path3899"
           d="m 6.0854167,9.525 c 0,6.35 2.9104166,7.9375 3.4395833,7.9375 v -4.497917 c -0.79375,0 -0.79375,-2.116666 -0.79375,-3.439583 0,-1.3229167 0,-3.4395833 0.79375,-3.4395833 V 1.5875 c -0.79375,0 -3.4395833,1.5875 -3.4395833,7.9375 z"
           inkscape:connector-curvature="0"
           style="stroke-width:0.26458332" />
        <path
           d="M 11.1125,6.0854167 A 0.52916667,0.52916667 0 0 0 11.641667,5.55625 V 2.1166667 A 0.52916667,0.52916667 0 0 0 11.1125,1.5875 h -1.058333 v 4.4979167 z"
           id="ear2"
           inkscape:connector-curvature="0"
           style="stroke-width:0.26458332" />
        <use
           id="use3902"
           xlink:href="#ear2"
           y="43"
           x="0"
           width="100%"
           height="100%" />
      </g>
    </symbol>
  </defs>
  <sodipodi:namedview
     inkscape:document-rotation="0"
     inkscape:window-maximized="1"
     inkscape:window-y="-8"
     inkscape:window-x="-8"
     inkscape:window-height="837"
     inkscape:window-width="1440"
     showgrid="false"
     inkscape:current-layer="layer1"
     inkscape:document-units="mm"
     inkscape:cy="351.53272"
     inkscape:cx="326.2768"
     inkscape:zoom="0.7"
     inkscape:pageshadow="2"
     inkscape:pageopacity="0.0"
     borderopacity="1.0"
     bordercolor="#666666"
     pagecolor="#ffffff"
     id="base" />
  <metadata
     id="metadata5">
    <rdf:RDF>
      <cc:Work
         rdf:about="">
        <dc:format>image/svg+xml</dc:format>
        <dc:type
           rdf:resource="http://purl.org/dc/dcmitype/StillImage" />
        <dc:title></dc:title>
      </cc:Work>
    </rdf:RDF>
  </metadata>
  <g
     transform="translate(-28.821637,-48.277371)"
     id="layer1"
     inkscape:groupmode="layer"
     inkscape:label="Calque 1">
    <g
       style="fill:#b3b3b3;stroke:#999999;stroke-width:47.2439;stroke-miterlimit:4;stroke-dasharray:none"
       transform="matrix(0.26458437,0,0,0.26458437,42.257737,59.555353)"
       id="g3852">
      <g
         style="fill:#b3b3b3;stroke:#999999;stroke-width:47.2439;stroke-miterlimit:4;stroke-dasharray:none"
         id="g3850">
        <path
           style="fill:#b3b3b3;stroke:#999999;stroke-width:47.2439;stroke-miterlimit:4;stroke-dasharray:none"
           inkscape:connector-curvature="0"
           d="M 414.168,500.62 255.999,417.465 97.83,500.62 128.037,324.499 0,199.764 176.86,174.075 255.999,11.378 l 79.139,162.697 176.86,25.689 -128.037,124.734 z"
           id="path3848" />
      </g>
    </g>
    <g
       id="g3868"
       transform="matrix(0.26458437,0,0,0.26458437,42.257737,59.555353)"
       style="fill:#cccccc;stroke:none;stroke-width:47.2439;stroke-miterlimit:4;stroke-dasharray:none">
      <g
         id="g3866"
         style="fill:#cccccc;stroke:none;stroke-width:47.2439;stroke-miterlimit:4;stroke-dasharray:none">
        <path
           id="path3864"
           d="M 414.168,500.62 255.999,417.465 97.83,500.62 128.037,324.499 0,199.764 176.86,174.075 255.999,11.378 l 79.139,162.697 176.86,25.689 -128.037,124.734 z"
           inkscape:connector-curvature="0"
           style="fill:#cccccc;stroke:none;stroke-width:47.2439;stroke-miterlimit:4;stroke-dasharray:none" />
      </g>
    </g>
  </g>
</svg>
